PathFileType	4	(X/Y/Z)	path1_15_0-580.trc
DataRate	CameraRate	NumFrames	NumMarkers	Units	OrigDataRate	OrigDataStartFrame	OrigNumFrames
30	30	7	22	m	30	0	580
Frame#	Time	Hip			RHip			RKnee			RAnkle			RBigToe			RSmallToe			RHeel			LHip			LKnee			LAnkle			LBigToe			LSmallToe			LHeel			Neck			Head			Nose			RShoulder			RElbow			RWrist			LShoulder			LElbow			LWrist		
		X1	Y1	Z1	X2	Y2	Z2	X3	Y3	Z3	X4	Y4	Z4	X5	Y5	Z5	X6	Y6	Z6	X7	Y7	Z7	X8	Y8	Z8	X9	Y9	Z9	X10	Y10	Z10	X11	Y11	Z11	X12	Y12	Z12	X13	Y13	Z13	X14	Y14	Z14	X15	Y15	Z15	X16	Y16	Z16	X17	Y17	Z17	X18	Y18	Z18	X19	Y19	Z19	X20	Y20	Z20	X21	Y21	Z21	X22	Y22	Z22
1	0.0333333333333333	2.4827418154006806	0.8285495285627895	0.5399370378424826	2.4883764843637675	0.8178097178785003	0.4517958823459108	2.463252537789387	0.4561747942250615	0.4561258940111215	2.5366142972371	0.08906941296900464	0.49311664935690325	2.356821081326035	0.021054108052669135	0.4581227853425931	2.396053001504557	0.026386943969278598	0.4008041161554392	2.576063664286001	0.037642360951110496	0.4810106808189207	2.4747995566607113	0.8156145252065178	0.6299141694306934	2.4788622088604186	0.43992668743158925	0.6156133676305797	2.543822108955738	0.09337065986760021	0.6318754363130374	2.36471161638854	0.015015808264815562	0.6263138421666335	2.401843782063213	0.02689248408564056	0.6876992828726485	2.59520056119561	0.042836167226621646	0.6249729596510356	2.4380382360520194	1.4665855670793309	0.5590864949791375	2.3736817136268056	1.7374092602384783	0.5171796241397858	2.2962004330823698	1.5909983424151395	0.5338816226293261	2.4846912241056196	1.3730131286341745	0.39021514850466543	2.516593340091664	1.0735229863625322	0.3673118034322213	2.476191050513467	0.828652699942128	0.34151750529790964	2.4618996871998617	1.3630614380733852	0.7493300259108522	2.4723448099759446	1.0654614040500074	0.7582453353106957	2.468883873226923	0.8284964058839351	0.7582574332717001
2	0.0666666666666666	2.4810865340845796	0.8311114988032607	0.5409616522897165	2.485886520979167	0.8140494568561414	0.4558150624909577	2.4707394721494804	0.457565204400242	0.46486317686558426	2.5385154817236573	0.0922154257218453	0.4957458728011989	2.355635082361779	0.023218275265400642	0.45689293560800764	2.3946805663686757	0.02531992673206655	0.3992291282785695	2.5793151847569065	0.03516084934390563	0.48345911911001643	2.475447275224953	0.8119670555426323	0.628784558316283	2.480442564882708	0.44268942932561206	0.6170450440580013	2.537612477138601	0.10067581144724874	0.6243697758927698	2.3713597662297436	0.014852189954327997	0.6299690714408939	2.399136246839639	0.027660824024109	0.6833719020989789	2.584306303406751	0.042063532761631585	0.618104794186767	2.4371720224029807	1.4661259524010946	0.5588893747447902	2.379534851461306	1.7302871878406416	0.5137963315794449	2.296871337219507	1.5938227348819867	0.5370829159526856	2.4860298772904525	1.3708058056811265	0.3895834483021958	2.509037680716837	1.0737122077029775	0.3562291797931382	2.4758091258427264	0.8333227924314051	0.33858538219261836	2.4564386390407593	1.357478054305799	0.7345509029585929	2.4736657741305543	1.0667104323734138	0.7567885861860744	2.4695188253450304	0.8313815776745236	0.7577227039508598
3	0.1	2.47980466028755	0.8332620311698132	0.5417568914974136	2.483841028768468	0.8112403561607004	0.4588576416979023	2.4781043244505767	0.4580408779495594	0.473861538077689	2.5400402909213247	0.09492958574634514	0.49775109744125096	2.3546298634215974	0.025053427324980757	0.45582556832323134	2.393465260253841	0.024548266107865438	0.39793545871266156	2.5820260851228154	0.03305308936339119	0.4852094719536585	2.47584001256975	0.8090642493870551	0.6276200623677559	2.4815909248638195	0.4451756568171557	0.6172156288761704	2.5320939204291326	0.10706215276268748	0.6176392227583402	2.376979090606662	0.014671315112962532	0.6323927504860252	2.396935099410136	0.028293972530676333	0.679571673468814	2.5754672759630757	0.04157131946151721	0.6125136482409841	2.4365224962081906	1.4657579457362773	0.5586953343774909	2.384236391506854	1.7246222696505884	0.5110797385932999	2.29738252459264	1.5962845741573437	0.5396533320089834	2.48713431573246	1.3690858833807962	0.38903545286408286	2.5023757690071617	1.0740716322888912	0.34630683402132045	2.4755210915281474	0.8371132214590387	0.3362336548776347	2.452323044116348	1.3530620003065685	0.7223787668068122	2.474841698362516	1.0677439091129366	0.755673530844802	2.470091669853717	0.833721440329158	0.7573285638295911
4	0.1333333333333333	2.4790928381368857	0.8347928706165375	0.542214000502305	2.4825139541012753	0.8097225967030323	0.46057613588417445	2.484833435646573	0.45738024732494414	0.4824858458421195	2.541012517065487	0.09697581439362099	0.49882049897091074	2.353902863595593	0.026365218591574625	0.45504004344811405	2.392515788664229	0.02421937971129343	0.39710066064923466	2.5838950295135534	0.03154594885435384	0.4860050086815344	2.4759559031098624	0.8072943216018418	0.6265484935940282	2.4822712828154367	0.44688915686618635	0.6158438753502509	2.5280123138721327	0.1118182469363915	0.6124351072728281	2.3810482547638268	0.014600061213485265	0.6332781915493274	2.39557035928667	0.02875507801344447	0.676623786620194	2.5698163841167956	0.04138885206137777	0.608759769386322	2.4361673689037815	1.465523152826899	0.558458884512367	2.3872344849163327	1.721085660794486	0.5093964589542127	2.297658118696006	1.5981461491263849	0.5413070283013603	2.4878699126505692	1.368054563161708	0.38854632634364855	2.4973703694965814	1.0744812749236337	0.33868627203528134	2.475363116054312	0.8395731698239464	0.3347483611998251	2.4504312498407637	1.3504702677160676	0.7135885821943324	2.475802777948867	1.0684288911154298	0.7550047904853516	2.470608336489417	0.8352362147283796	0.7571099702275216
5	0.1666666666666666	2.4789745619170476	0.8356992905079484	0.5423717848698418	2.481951895607117	0.8092679373915683	0.4611656149621762	2.490174614096441	0.4560428126908441	0.48950528052733316	2.5414597725387758	0.09838898165866193	0.4989840486614605	2.353429444826007	0.027147950755435326	0.45460435823893397	2.3918735879308572	0.02429857484462021	0.3967359271554079	2.584890134562746	0.0306940396603861	0.4860328494273994	2.475969043718184	0.8065936240652151	0.6257546964352418	2.482687341547778	0.44748867267793535	0.6136389769207046	2.525852653114936	0.11466168589933977	0.6091914590722693	2.3835570446294714	0.014776867944516523	0.6332919542532941	2.3946633925054677	0.029243161846888452	0.6745297710929844	2.5673611059842774	0.04133975065617737	0.6066827503377306	2.4360600477912624	1.4653924803008154	0.5581315503721306	2.3886464537166625	1.7194874981333697	0.5086678513122371	2.2977467457269216	1.5993463721059795	0.5421242703171582	2.488228933684727	1.3676291966621852	0.38804807433882776	2.494273549490893	1.0746953170361004	0.33385217802084405	2.4753269624875327	0.8407648358097974	0.334062364423216	2.4506132129773763	1.3495602384357936	0.707839645998118	2.476540393041826	1.0687524298195838	0.7546911353595522	2.471119555910778	0.8359500989259044	0.7570194014209941
6	0.2	2.47940653215876	0.8360638574891643	0.5423586270702002	2.4820484558038767	0.8094428936146731	0.4609507719671505	2.4936996764658663	0.45465203721393477	0.4941140384773289	2.5415109663551316	0.0993533437072634	0.49844995914769075	2.3530652236384353	0.027506454314904078	0.45454068567083866	2.391493284587424	0.024613142030049537	0.3967206223203125	2.5851594780061133	0.030424106757785924	0.4856940762470464	2.476058379100237	0.8066032174343709	0.6253096110057653	2.4829446584343713	0.44714553721504763	0.6117920607766091	2.5255662538803834	0.11575932425537026	0.6078821369427315	2.384733299268089	0.015190656678987936	0.6333399785704693	2.3934622124156144	0.030001561923690155	0.6731357547024129	2.567279866884293	0.04128024452938601	0.6058008474466625	2.436129872616989	1.4652946132854758	0.557739877081515	2.388923517081272	1.7192284450789765	0.5086177932308525	2.2977716095687724	1.5999460083967758	0.5423352096199171	2.488299720538807	1.367619340433302	0.387503507178919	2.49277664764763	1.0746155978407292	0.3314016797308782	2.475392229699799	0.8410634396124393	0.3339063790954431	2.451958114428341	1.349638492085372	0.7046732660969405	2.477069678863609	1.0687919338087888	0.7546218547793886	2.4716468741649495	0.8360517991373342	0.7570216979589951
7	0.2333333333333333	2.480273033611894	0.8359968049730208	0.5423131257867914	2.482616114306603	0.8098807405480712	0.4602560482747278	2.4955065349980896	0.4536343320153304	0.4963259524748968	2.541349341790588	0.1000124167392712	0.4975112529443307	2.3526154413789158	0.027560204362507418	0.45482185869007674	2.391246961077075	0.024950357764797662	0.39690265143798803	2.584970591813554	0.030567665561693404	0.48542966997854164	2.4762976148256644	0.8069560258616635	0.6251917300097007	2.483046472945116	0.4462974829838211	0.6113838066699692	2.5267264580519484	0.1155075406300422	0.6082371372978216	2.3848448040871197	0.01574156302910911	0.6339536778447242	2.391686087904328	0.0310323260052507	0.6723822970128204	2.5684322134736832	0.04120017486558089	0.6056185989760297	2.4363423375949753	1.4651579418934808	0.5574065761776629	2.3884950584872975	1.7197338147689167	0.5090382121377274	2.297837090893435	1.6000480106009958	0.5421829200298672	2.4882047031996284	1.3678382747356341	0.3869198767252434	2.49237116516475	1.074302812689356	0.3305586183786851	2.4755354717546063	0.8408756955165005	0.33399764084259886	2.453728680768387	1.3500558954426345	0.7033373451841873	2.4774082197138623	1.068649869356234	0.7547416453889528	2.4721560279081536	0.8357631862133178	0.7571165764985874
